# xmcd CD database file
#
# Track frame offsets:
#	150
#	13587
#	26989
#	37953
#	50013
#	62457
#	75557
#	93844
#	135446
#	159425
#	173235
#	185382
#	196729
#	221821
#	232948
#	247800
#
# Disc length: 3502 seconds
#
# Revision: 4
# Processed by: cddbd v1.5.1PL2 Copyright (c) Steve Scherf et al.
# Submitted via: CDex 1.51
#
DISCID=c30dac10
DTITLE=Dinah Washington - Dinah Washington Sings the Blues
DYEAR=1987
DGENRE=Jazz
TTITLE0=Show Time
TTITLE1=Time Out For Tears
TTITLE2=Trouble In Mind
TTITLE3=A Bad Case Of The Blues
TTITLE4=Is You Is Or Is You Ain't My Baby?
TTITLE5=Bad Luck
TTITLE6=You Don't Know What Love Is
TTITLE7=Trouble In The Lowlands
TTITLE8=Blue Gardenia
TTITLE9=Soft Winds
TTITLE10=Somewhere Along The Line
TTITLE11=Salty Papa Blues
TTITLE12=Make The Man Love Me
TTITLE13=Lingering
TTITLE14=Since I Fell For You
TTITLE15=No More
EXTD=YEAR: 1987
EXTT0=
EXTT1=
EXTT2=
EXTT3=
EXTT4=
EXTT5=
EXTT6=
EXTT7=
EXTT8=
EXTT9=
EXTT10=
EXTT11=
EXTT12=
EXTT13=
EXTT14=
EXTT15=
PLAYORDER=
